<svg width="24" height="24" viewBox="0 0 24 24" fill="none" xmlns="http://www.w3.org/2000/svg">
<path d="M2 10H4V18H2V10Z" fill="#201F24"/>
<path d="M4 8H6V10H4V8Z" fill="#201F24"/>
<path d="M6 6H8V8H6V6Z" fill="#201F24"/>
<path d="M8 6H10V8H8V6Z" fill="#201F24"/>
<path d="M12 4H14V6H12V4Z" fill="#201F24"/>
<path d="M14 2H16V4H14V2Z" fill="#201F24"/>
<path d="M16 0H18V2H16V0Z" fill="#201F24"/>
<path d="M12 2H14V4H12V2Z" fill="#201F24"/>
<path d="M14 0H16V2H14V0Z" fill="#201F24"/>
<path d="M10 7H12V9H10V7Z" fill="#201F24"/>
<path d="M12 7H14V9H12V7Z" fill="#201F24"/>
<path d="M14 6H16V8H14V6Z" fill="#201F24"/>
<path d="M16 6H18V8H16V6Z" fill="#201F24"/>
<path d="M18 6H20V8H18V6Z" fill="#201F24"/>
<path d="M20 8H22V10H20V8Z" fill="#201F24"/>
<path d="M18 10H20V12H18V10Z" fill="#201F24"/>
<path d="M16 12H18V14H16V12Z" fill="#201F24"/>
<path d="M16 14H18V16H16V14Z" fill="#201F24"/>
<path d="M18 16H20V18H18V16Z" fill="#201F24"/>
<path d="M20 18H22V20H20V18Z" fill="#201F24"/>
<path d="M18 20H20V22H18V20Z" fill="#201F24"/>
<path d="M16 22H18V24H16V22Z" fill="#201F24"/>
<path d="M14 22H16V24H14V22Z" fill="#201F24"/>
<path d="M12 21H14V23H12V21Z" fill="#201F24"/>
<path d="M10 21H12V23H10V21Z" fill="#201F24"/>
<path d="M8 22H10V24H8V22Z" fill="#201F24"/>
<path d="M6 22H8V24H6V22Z" fill="#201F24"/>
<path d="M4 20H6V22H4V20Z" fill="#201F24"/>
<path d="M2 18H4V20H2V18Z" fill="#201F24"/>
</svg>
